<svg width="118" height="117" viewBox="0 0 118 117" fill="none" xmlns="http://www.w3.org/2000/svg">
<path d="M106.766 105.898V61.3344L89.8747 61.2688V72.4492H95.4919V117H106.753L117.921 105.938L117.947 105.898H106.766ZM112.357 50.1935L117.868 44.6295L78.6404 44.5639V33.4229L106.766 33.4886V27.9115L78.6404 27.859V16.718L106.766 16.7836V11.2066L78.6404 11.141V0L73.0627 5.57705V27.9246H50.594V39.0656H61.8283L67.406 33.4229V39.0656H73.0627V50.2066H39.3465V16.7836H61.8283V11.2066H39.3465V0.0656124L33.7293 5.53768V50.1541H22.495V11.1803H11.2606V0.0393678H11.3527L11.2212 0L0 11.141V22.282H11.2343L11.2738 55.7049L73.0627 55.7705V105.898L11.2343 105.833V55.7705L0.0263095 66.8721V117H61.7889L67.4323 111.436V117H78.6667L89.901 105.859L89.8615 105.688V105.833H78.6272V50.1279L112.357 50.1935ZM61.8283 94.7574V66.9115L22.4687 66.8328V77.9869H50.594V94.7443L61.8283 94.7574Z" fill="black"/>
<path d="M33.7425 0.0393677V50.1672H22.5081V11.1803H11.2738V0.0393677H33.7425Z" fill="#FFDC61"/>
<path d="M73.0626 0.0656128V27.9115H50.5939V39.0525H73.0626V50.1935H39.3464V16.7836H61.8283V11.2066H39.3464V0.0656128H73.0626Z" fill="#FFDC61"/>
<path d="M118 0.0656124V44.6295H117.868L78.6404 44.5639V33.423L106.766 33.4886V27.9115L78.6404 27.8459V16.7049L106.766 16.7837V11.2066L78.6404 11.141V0L118 0.0656124Z" fill="#FFDC61"/>
<path d="M118 50.1935V105.898H106.766V61.3345L89.8747 61.2688V105.833H78.6404V50.1279L112.357 50.1935H118Z" fill="#FFDC61"/>
<path d="M11.2738 55.7049V55.7311L11.2344 55.7705V105.833L73.0627 105.898V55.7705L11.2738 55.7049ZM61.8284 94.7574L50.594 94.7443L22.4687 94.6918V66.8328L61.8284 66.8984V94.7574Z" fill="#FFDC61"/>
</svg>
